<svg xmlns="http://www.w3.org/2000/svg" xmlns:xlink="http://www.w3.org/1999/xlink" style="width: 0; height: 0; visibility: hidden; position: absolute;" aria-hidden="true"><symbol  viewBox='0 0 97.8 97.8' id='behance-circle'>
    <path fill="var(--icon-color)" d="M39.3 38.7c0-4.6-3.1-4.6-3.1-4.6H23.3v10h12.1c2 0 4-.8 4-5.4zm-3.1 12.1h-13v11.9h12.4c1.9 0 5.3-.6 5.3-5.8 0-6.1-4.7-6-4.7-6zm33-6.8c-6.8 0-7.8 6.8-7.8 6.8H76s0-6.8-6.8-6.8z"></path><path fill="var(--icon-color)" d="M48.9 0a48.9 48.9 0 100 97.8 48.9 48.9 0 000-97.8zm10.6 28.8h18.3v5.5H59.5v-5.5zm-9.2 28.7c0 13.5-14.1 13-14.1 13H13.1V26.3h23.1c7 0 12.5 4 12.5 11.8 0 8-6.7 8.5-6.7 8.5 8.9 0 8.3 11 8.3 11zm19 7c7.4 0 7.1-4.8 7.1-4.8h7.8c0 12.7-15.1 11.8-15.1 11.8-18.2 0-17-17-17-17s0-17 17-17c18 0 15.4 19.3 15.4 19.3h-23c0 8.2 7.8 7.7 7.8 7.7z"></path>
  </symbol><symbol  viewBox='0 0 128 128' id='facebook-circle'>
    <circle cx="64" cy="64" fill="var(--icon-color)" r="64"></circle><path fill="var(--text-color)" d="M56.3 104V67.9h-13v-13h13V43.2c0-12 7-19.1 17.7-19.1 5.2 0 9.4.5 10.6.7v13.5H76c-5.8 0-6.9 2.9-6.9 7V55h15l-2.2 12.9H69.1V104H56.3z"></path>
  </symbol><symbol  viewBox='0 0 473.9 473.9' id='google-plus-circle'>
    <circle cx="237" cy="237" r="237" fill="var(--icon-color)"></circle><path d="M404.5 69.4A237 237 0 0169.4 404.5L404.5 69.4z" fill="var(--icon-color)"></path><path d="M472 267.2L336.4 131.6l-28 28-30-29.9-38 7-13.1 5.5-42.4-8-38 23.7-7.4 72 59.3 59.3-36.4 7.7-34.9 16.9-9.2 55.8 103.8 103.8A237 237 0 00472 267.1z" fill="var(--icon-color)"></path><path d="M235.6 142a46.5 46.5 0 0115 16c2.5 3.6 4.6 8 6.5 13.1a63 63 0 012.3 17.8 52 52 0 01-16.5 39.8c-3.2 3-6.6 6.2-10.2 9.3a62 62 0 00-5.8 7.3c-2 2.8-3 6.1-3 9.8 0 3.7 1 6.7 3.1 9 1.8 2.3 3.6 4.3 5.3 6l11.8 9.6a119 119 0 0119.2 19.8c5.2 7.4 8 17 8.2 28.8 0 16.8-7.5 31.7-22.3 44.7-15.4 13.5-37.7 20.4-66.7 20.9-24.4-.2-42.5-5.4-54.5-15.6a42.1 42.1 0 01-18.2-34 50.9 50.9 0 0126.7-42.3c11.2-6.3 23-10.6 35.4-12.8 12.3-1.8 22.5-2.8 30.6-3a74.5 74.5 0 01-6.7-10.6c-2.3-3.6-3.5-8-3.5-13 0-3.2.5-5.7 1.3-7.8l2.2-6c-4 .5-7.7.8-11.2.8-18.5-.3-32.6-6-42.3-17.5a52 52 0 01-15.2-37c0-17.1 7.2-32.6 21.6-46.5a75.7 75.7 0 0130.7-16 149 149 0 0129.7-3.1h69.4L257.1 142h-21.5zm13.5 199.9a34 34 0 00-8.7-23c-6-6.3-15.6-13.9-28.5-23a90.7 90.7 0 00-21.4.3c-7.2 1.1-14.5 2.8-22 5l-7.5 3a36.3 36.3 0 00-21.7 32.7c0 12.3 5.5 22.3 16.5 30.2 10.6 8 25 12 43.2 12.2 16.3-.2 28.8-3.8 37.4-10.8a32.9 32.9 0 0012.7-26.6zM200.6 240a32 32 0 0022.9-9.9 36 36 0 005.7-13.5 91.5 91.5 0 00-9.7-53.1 46.2 46.2 0 00-13-16.4 30.5 30.5 0 00-42.3 5.1 42.7 42.7 0 00-7.6 25.8 82 82 0 0011 39.3 53.6 53.6 0 0013.8 16c5.6 4.5 12 6.7 19.2 6.7zm172-72.6h-36.4v-36.5h-17.7v36.5h-36.4v17.7h36.4v36.4h17.7V185h36.4z" fill="var(--text-color)"></path>
  </symbol><symbol  viewBox='0 0 512 512' id='linkedin-circle'>
    <path fill="var(--icon-color)" d="M256 0a256 256 0 100 512 256 256 0 000-512zm-74.4 387h-62.3V199.4h62.3zm-31.2-213.2h-.4c-20.9 0-34.4-14.4-34.4-32.4 0-18.4 14-32.4 35.3-32.4 21.3 0 34.4 14 34.8 32.4 0 18-13.5 32.4-35.3 32.4zm256 213.2h-62.3V286.7c0-25.3-9-42.5-31.6-42.5a34.2 34.2 0 00-32 22.8c-1.6 4-2 9.6-2 15.2V387H216s.8-170 0-187.6h62.4V226a61.9 61.9 0 0156.1-31c41 0 71.8 26.8 71.8 84.4zm0 0"></path>
  </symbol><symbol  viewBox='0 0 128 128' id='twitter-circle'>
    <circle cx="64" cy="64" fill="var(--icon-color)" r="64"></circle><path fill="var(--text-color)" d="M105 40.2c-3 1.3-6.1 2.2-9.4 2.6 3.4-2 6-5.3 7.2-9.1a32.9 32.9 0 01-10.4 4 16.4 16.4 0 00-28 15 46.6 46.6 0 01-33.8-17.2 16.3 16.3 0 005 22c-2.6-.2-5.2-1-7.4-2.1v.2c0 8 5.7 14.5 13.2 16a16.4 16.4 0 01-7.4.3c2 6.6 8.1 11.3 15.3 11.4A33 33 0 0125 90.1a46.4 46.4 0 0071.8-41.4c3.2-2.3 6-5.2 8.2-8.5"></path>
  </symbol></svg>